<?xml version="1.0" standalone="no"?>
<!DOCTYPE svg PUBLIC "-//W3C//DTD SVG 20010904//EN"
 "http://www.w3.org/TR/2001/REC-SVG-20010904/DTD/svg10.dtd">
<svg version="1.0" xmlns="http://www.w3.org/2000/svg"
 width="127.000000pt" height="127.000000pt" viewBox="0 0 127.000000 127.000000"
 preserveAspectRatio="xMidYMid meet">
<metadata>
Created by potrace 1.11, written by Peter Selinger 2001-2013
</metadata>
<g transform="translate(0.000000,127.000000) scale(0.100000,-0.100000)"
fill="#000000" stroke="none">
<path d="M84 1255 c10 -8 24 -16 30 -18 7 -2 0 -19 -16 -43 -26 -39 -44 -104
-28 -104 5 0 10 -8 13 -17 2 -10 3 3 1 29 -2 29 2 53 10 60 7 7 13 16 14 21 1
4 4 7 7 7 3 0 19 0 35 0 57 0 94 -75 55 -114 -8 -8 -15 -20 -15 -27 0 -6 10 0
21 15 17 21 20 36 16 66 -3 22 -1 40 4 42 5 2 11 26 14 53 4 39 3 43 -4 20 -5
-16 -13 -41 -18 -53 -8 -21 -10 -22 -22 -8 -8 9 -29 16 -47 16 -36 0 -45 13
-18 28 12 7 6 12 -28 25 -33 13 -39 13 -24 2z"/>
<path d="M300 1245 c-25 -13 -41 -24 -37 -24 14 -2 74 27 81 38 9 13 11 14
-44 -14z"/>
<path d="M926 1261 c16 -17 84 -42 84 -31 0 5 -8 10 -18 10 -10 0 -27 7 -38
15 -21 16 -44 21 -28 6z"/>
<path d="M1028 1258 c-7 -19 13 -89 23 -83 4 3 4 18 -2 32 -5 15 -8 32 -5 39
3 8 1 16 -4 19 -4 3 -10 -1 -12 -7z"/>
<path d="M1172 1254 c-13 -9 -44 -19 -70 -24 -42 -7 -44 -8 -12 -9 32 0 120
31 120 44 0 9 -15 5 -38 -11z"/>
<path d="M25 1240 c-10 -11 -16 -22 -13 -25 2 -3 14 6 26 20 26 30 13 34 -13
5z"/>
<path d="M1239 1236 c14 -14 27 -26 29 -26 10 0 -26 44 -39 48 -8 3 -3 -7 10
-22z"/>
<path d="M1210 1236 c0 -2 8 -10 18 -17 15 -13 16 -12 3 4 -13 16 -21 21 -21
13z"/>
<path d="M173 1223 c9 -2 25 -2 35 0 9 3 1 5 -18 5 -19 0 -27 -2 -17 -5z"/>
<path d="M1176 1181 c21 -33 25 -47 20 -83 -4 -30 -3 -37 3 -23 5 11 10 30 10
43 1 24 -39 102 -52 102 -4 0 4 -18 19 -39z"/>
<path d="M0 1197 c0 -5 5 -18 11 -29 8 -16 8 -23 -2 -30 -11 -8 -10 -9 3 -5
34 11 40 -121 8 -183 -11 -22 -16 -40 -11 -40 22 0 44 89 39 159 -3 44 -1 74
6 81 8 8 6 9 -6 5 -10 -4 -18 -3 -18 2 0 12 -29 51 -30 40z"/>
<path d="M1100 1196 c0 -2 11 -6 25 -8 14 -3 25 -1 25 3 0 5 -11 9 -25 9 -14
0 -25 -2 -25 -4z"/>
<path d="M1256 1174 c-5 -17 -12 -24 -21 -20 -12 4 -13 2 -3 -13 17 -28 38
-14 38 25 0 41 -5 44 -14 8z"/>
<path d="M1066 1168 c-35 -49 -2 -129 52 -127 26 1 25 1 -6 10 -32 10 -52 39
-52 77 0 12 5 10 17 -9 20 -32 107 -93 125 -87 7 3 -2 12 -22 20 -38 17 -110
84 -110 103 0 6 5 16 12 23 7 7 9 12 6 12 -4 0 -14 -10 -22 -22z"/>
<path d="M170 1105 c-19 -20 -51 -43 -72 -52 -40 -18 -54 -39 -15 -24 53 22
84 42 106 71 32 44 21 46 -19 5z"/>
<path d="M1228 1085 c-3 -14 -1 -25 3 -25 5 0 9 11 9 25 0 14 -2 25 -4 25 -2
0 -6 -11 -8 -25z"/>
<path d="M145 1040 c3 -5 12 -7 20 -3 21 7 19 13 -6 13 -11 0 -18 -4 -14 -10z"/>
<path d="M1225 1020 c1 -16 5 -33 8 -37 4 -4 6 8 5 26 -3 41 -15 51 -13 11z"/>
<path d="M13 1033 c-18 -7 -16 -20 2 -20 8 0 15 6 15 14 0 7 -1 13 -2 12 -2 0
-9 -3 -15 -6z"/>
<path d="M610 958 c-11 -18 -19 -44 -19 -58 2 -23 2 -24 6 -2 2 12 9 22 14 22
6 0 8 4 4 10 -6 10 15 50 28 50 16 0 37 -70 37 -124 0 -73 -6 -86 -41 -86 -23
0 -30 5 -35 28 -10 47 -14 49 -9 5 3 -26 1 -43 -5 -43 -5 0 -10 -4 -10 -10 0
-5 6 -7 13 -4 8 3 18 -6 25 -21 15 -32 30 -32 42 1 8 19 15 24 28 19 12 -4 14
-3 6 5 -7 7 -9 39 -6 86 4 58 1 84 -13 114 -22 49 -39 50 -65 8z m43 -204 c3
-4 1 -16 -4 -27 -9 -16 -13 -17 -20 -6 -13 21 -11 39 4 39 8 0 17 -3 20 -6z"/>
<path d="M1240 964 c0 -6 7 -19 16 -30 14 -18 14 -18 3 6 -14 31 -19 36 -19
24z"/>
<path d="M610 874 c0 -6 12 -9 30 -6 17 2 30 7 30 11 0 4 -13 7 -30 6 -16 0
-30 -5 -30 -11z"/>
<path d="M710 869 c0 -5 12 -14 28 -20 15 -6 46 -29 70 -52 40 -39 61 -40 25
-1 -41 45 -123 94 -123 73z"/>
<path d="M455 854 c-38 -19 -45 -31 -45 -75 0 -24 7 -42 23 -57 26 -24 77 -40
77 -23 0 6 -12 11 -27 11 -14 0 -34 7 -44 16 -17 15 -17 18 9 50 15 19 32 34
39 34 6 0 13 4 15 9 2 5 19 18 38 30 42 25 21 29 -23 4 -45 -26 -78 -55 -87
-78 -8 -18 -9 -18 -9 5 -1 33 25 70 50 70 10 0 19 5 19 10 0 13 1 13 -35 -6z"/>
<path d="M790 860 c0 -6 9 -10 19 -10 25 0 51 -36 51 -70 0 -38 -26 -68 -63
-73 l-32 -4 31 -1 c63 -4 97 72 57 125 -20 27 -63 49 -63 33z"/>
<path d="M549 822 c16 -31 13 -61 -10 -98 -11 -19 -18 -34 -15 -34 3 0 16 19
29 41 21 35 23 46 15 70 -5 16 -14 32 -20 35 -6 4 -5 -2 1 -14z"/>
<path d="M711 808 c-9 -25 -1 -55 31 -106 11 -18 19 -34 17 -35 -36 -19 -44
-27 -47 -40 -3 -16 63 -45 75 -33 4 3 -1 6 -10 6 -10 0 -17 5 -17 10 0 5 -3 9
-7 9 -18 -3 -33 2 -33 10 0 10 69 38 110 44 14 3 6 3 -17 2 -41 -2 -44 -1 -69
42 -20 34 -25 54 -21 79 7 39 0 45 -12 12z"/>
<path d="M393 695 c-10 -31 -10 -89 0 -138 4 -23 23 -19 19 5 -3 15 4 18 40
20 24 0 49 1 55 1 7 -1 10 3 7 8 -3 5 3 9 13 9 19 0 43 18 43 32 0 9 -54 38
-72 38 -7 -1 4 -9 24 -18 29 -14 35 -21 26 -30 -14 -14 -42 -16 -33 -3 3 5 0
13 -6 17 -9 5 -10 0 -7 -14 6 -23 0 -27 -69 -35 -33 -3 -33 -3 -33 39 0 24 4
54 10 68 5 14 6 28 1 30 -4 3 -13 -10 -18 -29z"/>
<path d="M870 725 c-3 -13 -3 -12 4 -68 4 -26 2 -66 -4 -88 -11 -38 -12 -40
-29 -25 -10 9 -31 16 -47 15 -28 -1 -28 -1 6 -9 40 -10 60 -33 60 -70 0 -41
-26 -70 -63 -70 l-32 0 28 18 c28 19 56 51 57 65 0 5 -23 -12 -51 -37 -28 -25
-57 -46 -63 -46 -22 0 -19 89 4 127 28 48 25 55 -5 11 -20 -29 -24 -48 -24
-98 1 -58 2 -61 23 -55 11 4 37 6 56 6 52 -2 84 34 78 88 -2 23 0 41 4 41 8 0
19 51 22 103 2 30 -20 114 -24 92z"/>
<path d="M610 681 c0 -5 -7 -17 -16 -25 -8 -9 -12 -16 -7 -16 9 0 43 36 43 45
0 3 -4 5 -10 5 -5 0 -10 -4 -10 -9z"/>
<path d="M650 684 c0 -6 11 -21 25 -34 32 -30 32 -21 0 16 -14 16 -25 24 -25
18z"/>
<path d="M433 673 c9 -2 25 -2 35 0 9 3 1 5 -18 5 -19 0 -27 -2 -17 -5z"/>
<path d="M910 671 c0 -4 15 -11 33 -16 17 -6 32 -17 32 -25 0 -8 -15 -19 -32
-25 -18 -5 -33 -12 -33 -17 0 -9 50 9 75 27 17 14 17 17 4 30 -17 17 -79 38
-79 26z"/>
<path d="M308 652 c-16 -9 -28 -20 -28 -24 0 -4 18 -17 40 -28 22 -11 40 -17
40 -12 0 4 -13 13 -30 19 -37 14 -38 28 -2 47 15 8 23 15 17 15 -5 0 -22 -7
-37 -17z"/>
<path d="M600 595 c13 -14 26 -23 28 -20 7 7 -29 45 -41 45 -6 0 0 -11 13 -25z"/>
<path d="M655 588 c-11 -17 -27 -42 -35 -55 -8 -13 -20 -21 -27 -19 -9 4 -11
-13 -3 -34 1 -3 2 -16 2 -30 -1 -19 2 -16 9 11 9 32 13 35 37 31 15 -3 30 -10
34 -16 14 -20 8 -127 -8 -162 -21 -43 -42 -44 -35 -1 1 5 -3 6 -8 3 -10 -6
-25 43 -16 52 3 3 18 8 33 10 36 5 42 12 9 12 -60 0 -70 -22 -40 -85 20 -41
35 -44 57 -11 25 38 35 99 25 153 -6 31 -6 49 1 51 5 2 10 8 10 13 0 4 -6 6
-13 3 -8 -3 -19 7 -26 22 -10 23 -9 30 6 48 10 11 23 24 28 28 6 5 4 8 -5 8
-8 0 -24 -14 -35 -32z m5 -78 c0 -3 -9 -6 -20 -7 -21 -2 -24 5 -13 33 6 16 7
16 20 -2 7 -10 13 -21 13 -24z"/>
<path d="M813 583 c9 -2 25 -2 35 0 9 3 1 5 -18 5 -19 0 -27 -2 -17 -5z"/>
<path d="M488 560 c-53 -10 -78 -35 -78 -80 0 -45 36 -84 72 -77 22 4 22 4 -3
6 -36 2 -59 31 -58 72 1 21 3 26 6 14 8 -35 67 -82 133 -106 l25 -9 -24 20
c-13 11 -28 20 -35 20 -14 0 -61 43 -83 76 -20 31 -9 44 45 54 36 6 41 4 56
-21 17 -29 22 -74 7 -65 -5 4 -7 -3 -4 -15 7 -27 23 -6 23 31 0 21 -34 92 -42
89 -2 -1 -20 -5 -40 -9z"/>
<path d="M2 338 c2 -7 9 -18 17 -24 17 -13 25 -89 17 -148 -6 -36 -10 -44 -24
-40 -13 5 -14 4 -3 -4 10 -7 11 -14 1 -32 -6 -12 -10 -24 -7 -26 2 -2 10 7 17
21 18 34 50 28 77 -15 12 -19 23 -29 23 -22 0 6 12 12 26 12 59 0 99 52 81
104 -6 17 -17 36 -26 41 -25 16 -61 24 -61 14 0 -5 11 -9 24 -9 31 0 56 -34
56 -75 l-1 -30 -19 40 c-11 22 -19 37 -20 33 0 -4 -23 9 -51 28 -28 19 -56 31
-62 27 -8 -5 -2 -11 14 -17 25 -9 26 -9 8 -27 -11 -11 -19 -33 -19 -50 0 -20
-4 -29 -12 -26 -9 3 -12 25 -10 78 3 53 -1 86 -13 117 -16 38 -38 59 -33 30z
m177 -193 c45 -52 41 -62 -31 -75 -36 -7 -40 -5 -53 21 -19 36 -19 74 1 93 19
20 39 10 83 -39z"/>
<path d="M1244 305 c-12 -29 -21 -167 -10 -154 2 2 6 36 9 76 3 39 10 81 17
92 6 12 8 21 5 21 -3 0 -13 -16 -21 -35z"/>
<path d="M8 233 c7 -3 16 -2 19 1 4 3 -2 6 -13 5 -11 0 -14 -3 -6 -6z"/>
<path d="M1115 223 c-11 -3 -30 -14 -42 -26 -49 -44 -13 -139 50 -135 l32 1
-32 4 c-39 5 -63 35 -63 79 0 33 26 64 53 64 9 0 19 5 22 10 3 6 5 9 3 9 -2
-1 -12 -3 -23 -6z"/>
<path d="M1146 205 c-22 -13 -44 -21 -50 -18 -6 3 -8 3 -4 -2 4 -4 1 -17 -7
-29 -21 -29 -18 -45 3 -21 27 31 83 76 90 71 4 -2 13 2 20 10 21 23 -7 17 -52
-11z"/>
<path d="M1197 158 c4 -30 0 -46 -23 -82 -15 -24 -32 -42 -36 -40 -4 3 -8 0
-8 -5 0 -6 5 -11 11 -11 5 0 8 -3 6 -7 -3 -5 8 -8 23 -9 28 -1 28 -1 8 16
l-21 17 26 39 c28 40 34 78 17 104 -6 10 -8 3 -3 -22z"/>
<path d="M661 124 c0 -11 3 -14 6 -6 3 7 2 16 -1 19 -3 4 -6 -2 -5 -13z"/>
<path d="M1233 124 c-17 -17 -16 -25 0 -18 8 3 19 -5 25 -18 10 -22 11 -22 9
5 -2 35 -18 50 -34 31z"/>
<path d="M230 90 c-3 -17 -3 -18 4 -55 7 -36 16 -45 15 -14 -2 34 -16 87 -19
69z"/>
<path d="M1035 63 c-12 -58 -13 -63 -6 -63 11 0 29 80 20 86 -5 2 -11 -8 -14
-23z"/>
<path d="M10 44 c0 -12 38 -50 44 -43 2 2 -7 15 -20 29 -13 13 -24 20 -24 14z"/>
<path d="M1240 25 c-13 -14 -19 -25 -13 -25 12 0 48 38 41 45 -2 3 -15 -6 -28
-20z"/>
<path d="M113 24 c-37 -16 -45 -29 -10 -18 12 4 28 7 35 7 6 0 12 4 12 8 0 4
17 10 38 12 l37 4 -40 1 c-22 0 -55 -6 -72 -14z"/>
<path d="M1060 36 c0 -8 51 -13 56 -5 3 5 -9 9 -25 9 -17 0 -31 -2 -31 -4z"/>
<path d="M292 20 c14 -4 31 -10 36 -13 5 -4 9 -1 9 6 0 7 -16 13 -36 14 -33 1
-34 1 -9 -7z"/>
<path d="M950 15 c-33 -19 -21 -19 21 0 19 8 27 14 19 14 -8 0 -26 -6 -40 -14z"/>
</g>
</svg>
